<svg width="32" height="32" xmlns="http://www.w3.org/2000/svg" viewBox="0 0 50 50"><defs><style>.cls-1{fill:#924a3d;}.cls-2{fill:#a96850;}.cls-3{fill:none;stroke:#6a2d20;}.cls-3,.cls-4,.cls-5{stroke-linecap:round;stroke-linejoin:round;}.cls-4{fill:#211c24;stroke:#001f20;}.cls-5{fill:#fff;stroke:#d8d4d5;}</style></defs><path class="cls-1" d="M28.45,30.79h8.89c-2.79,3.78-6.28,6.9-8.84,10.25l-.05,0Z"/><path class="cls-2" d="M28.45,41l.05,0c-2.05,2.69-3.5,5.52-3.5,9,0-3.44-1.45-6.27-3.5-9l.05,0V30.79h6.9Z"/><path class="cls-1" d="M21.55,30.79V41l-.05,0c-2.56-3.35-6.05-6.47-8.84-10.25Z"/><path class="cls-3" d="M21.55,41V30.79H12.66c2.79,3.78,6.28,6.9,8.84,10.25,2.05,2.69,3.5,5.52,3.5,9,0-3.44,1.45-6.27,3.5-9,2.56-3.35,6-6.47,8.84-10.25H28.45"/><polyline class="cls-3" points="28.45 41 28.45 30.79 21.55 30.79"/><path class="cls-4" d="M41.7,14.35a17,17,0,0,0-33.4,0A15,15,0,0,0,8,17.52a21.58,21.58,0,0,0,4.66,13.27H37.34A21.58,21.58,0,0,0,42,17.52,15,15,0,0,0,41.7,14.35Z"/><circle class="cls-5" cx="25.08" cy="16.81" r="5.91"/></svg>